<?xml version="1.0" encoding="utf-8"?>
<!-- Generator: $$$/GeneralStr/196=Adobe Illustrator 27.6.0, SVG Export Plug-In . SVG Version: 6.00 Build 0)  -->
<svg version="1.1" id="Capa_1" xmlns="http://www.w3.org/2000/svg" xmlns:xlink="http://www.w3.org/1999/xlink" x="0px" y="0px"
	 viewBox="0 0 152.9 56" style="enable-background:new 0 0 152.9 56;" xml:space="preserve">
<style type="text/css">
	.st0{fill:#1D1D1B;}
	.st1{fill:#6429CD;}
</style>
<g>
	<path class="st0" d="M47.9,15.8c-1.4,0-3,0.8-3.9,2.2c-0.1,0.1-0.3,0.1-0.3-0.1v-1.8c0-0.1-0.1-0.1-0.1-0.1h-2.5
		c-0.1,0-0.1,0.1-0.1,0.1V31c0,0.1,0.1,0.1,0.1,0.1h2.5c0.1,0,0.1-0.1,0.1-0.1v-7.4c0-2.5,1.4-5.1,3.9-5.1c0.5,0,1,0.1,1.4,0.2
		l0.1,0v-2.8l-0.1,0C48.7,15.8,48.3,15.8,47.9,15.8z"/>
	<path class="st0" d="M107.3,15.6c-2.1,0-3.9,1.1-4.8,2.8c-0.1,0.1-0.2,0.1-0.3,0c-0.9-1.8-2.5-2.8-4.6-2.8c-1.7,0-3.3,0.8-4.3,2.1
		c-0.1,0.1-0.3,0.1-0.3-0.1v-1.5c0-0.1-0.1-0.1-0.1-0.1h-2.5c-0.1,0-0.1,0.1-0.1,0.1V31c0,0.1,0.1,0.1,0.1,0.1H93
		c0.1,0,0.1-0.1,0.1-0.1v-7.4c0-3.3,1.7-5.4,4.1-5.4c1.8,0,2.9,1.5,2.9,4.1V31c0,0.1,0.1,0.1,0.1,0.1h2.5c0.1,0,0.1-0.1,0.1-0.1
		v-7.4c0-3.3,1.6-5.4,4.1-5.4c1.8,0,2.9,1.5,2.9,4.1V31c0,0.1,0.1,0.1,0.1,0.1h2.5c0.1,0,0.1-0.1,0.1-0.1v-9.2
		C112.7,18.1,110.6,15.6,107.3,15.6z"/>
	<ellipse class="st1" cx="84.9" cy="14.7" rx="2.3" ry="2.2"/>
	<path class="st1" d="M87.1,23.5c0-4.8-3.9-8.6-8.7-8.6s-8.7,3.9-8.7,8.6s3.9,8.6,8.7,8.6S87.1,28.2,87.1,23.5z M72.4,23.5
		c0-3.3,2.7-6,6-6c3.3,0,6,2.7,6,6c0,3.3-2.7,6-6,6C75.1,29.4,72.4,26.8,72.4,23.5z"/>
	<path class="st1" d="M81.2,31.8c-3.3,0-6,2.6-6,5.9c0,3.3,2.7,5.9,6,5.9s6-2.6,6-5.9C87.2,34.4,84.5,31.8,81.2,31.8z M81.3,41.1
		c-1.9,0-3.5-1.5-3.5-3.4c0-1.9,1.6-3.4,3.5-3.4s3.5,1.5,3.5,3.4C84.7,39.6,83.2,41.1,81.3,41.1z"/>
	<path class="st0" d="M29.4,15.4c-2.2,0-4.1,0.8-5.6,2.2v-2.2h-2.6V23c0,0.1,0,0.3,0,0.4s0,0.3,0,0.4v13h2.6v-7.6
		c1.5,1.3,3.4,2.2,5.6,2.2c4.5,0,8.1-3.6,8.1-8C37.6,19,33.9,15.4,29.4,15.4z M29.5,29c-3.1,0-5.6-2.5-5.6-5.6
		c0-3.1,2.5-5.6,5.6-5.6c3.1,0,5.6,2.5,5.6,5.6C35.1,26.5,32.6,29,29.5,29z"/>
	<path class="st0" d="M66.6,23.1v-7.7H64v2.2c-1.5-1.3-3.4-2.2-5.6-2.2c-4.5,0-8.1,3.6-8.1,8s3.6,8,8.1,8c2.2,0,4.1-0.8,5.6-2.2v2.2
		h2.6v-7.6c0-0.1,0-0.3,0-0.4S66.6,23.2,66.6,23.1z M58.4,29c-3.1,0-5.6-2.5-5.6-5.6c0-3.1,2.5-5.6,5.6-5.6c3.1,0,5.6,2.5,5.6,5.6
		C64,26.5,61.5,29,58.4,29z"/>
	<path class="st0" d="M131.6,23.4c0-0.1,0-0.3,0-0.4v-7.7H129v2.2c-1.5-1.3-3.4-2.2-5.6-2.2c-4.5,0-8.1,3.6-8.1,8c0,4.4,3.6,8,8.1,8
		c2.2,0,4.1-0.8,5.6-2.2v2.2h2.6v-7.6C131.6,23.7,131.6,23.6,131.6,23.4z M123.4,29c-3.1,0-5.6-2.5-5.6-5.6c0-3.1,2.5-5.6,5.6-5.6
		c3.1,0,5.6,2.5,5.6,5.6C129,26.5,126.5,29,123.4,29z"/>
</g>
</svg>
